<svg xmlns="http://www.w3.org/2000/svg" fill="none" viewBox="0 0 46.75 40.36">
<path d="M0 0 5.4812 9.4665 10.9976 0H-0ZM29.8721 17.1624 23.3682 28.3294 22.3865 26.6348 34.3775 6.0597H36.3468L30.8597 15.4736H37.7784L46.7481 0C46.7481 0 35.2774 0 33.3958 0 30.959 0 29.5273 2.2673 29.5273 2.2673 29.5273 2.2673 16.7591 24.1922 16.7475 24.1922 16.093 25.5128 16.093 27.6632 16.7591 28.902 16.7708 28.9254 23.374 40.3144 23.374 40.3144L36.8026 17.1507H29.8721V17.1624ZM11.8623 13.8024H20.8322L24.3734 7.7193H15.3977L16.3852 6.0247H25.361L28.8729 0C28.8729 0 17.9747 0 15.6431 0 13.1187 0 11.6403 2.279 11.6403 2.279L6.4629 11.1611 9.9223 17.1274 11.8623 13.8024Z" fill="#07F468"/>
</svg>